<?xml version="1.0" encoding="iso-8859-1"?>
<!-- Generator: Adobe Illustrator 17.1.0, SVG Export Plug-In . SVG Version: 6.00 Build 0)  -->
<!DOCTYPE svg PUBLIC "-//W3C//DTD SVG 1.1//EN" "http://www.w3.org/Graphics/SVG/1.1/DTD/svg11.dtd">
<svg version="1.1" id="Capa_1" xmlns="http://www.w3.org/2000/svg" xmlns:xlink="http://www.w3.org/1999/xlink" x="0px" y="0px"
	 viewBox="0 0 492.491 492.491" style="enable-background:new 0 0 492.491 492.491;" xml:space="preserve">
<path d="M467.228,171.089L352.544,40.03c-11.842-13.533-28.947-21.294-46.929-21.294h-14.42V7.5c0-4.142-3.357-7.5-7.5-7.5h-74.9
	c-4.143,0-7.5,3.358-7.5,7.5v11.236h-14.42c-17.981,0-35.087,7.761-46.929,21.294L25.263,171.089
	c-2.6,2.972-2.451,7.45,0.341,10.242l37.45,37.45c2.929,2.929,7.677,2.93,10.607,0l90.184-90.181v112.833l-3.5,90.992
	c-0.643,1.615-0.692,3.377-0.192,4.992l-5.665,147.286c-0.079,2.038,0.676,4.019,2.09,5.488c1.414,1.47,3.365,2.3,5.404,2.3h56.175
	c3.751,0,6.925-2.771,7.432-6.487l20.656-151.479l20.656,151.479c0.507,3.716,3.681,6.487,7.432,6.487h56.175
	c0.007,0,0.014,0,0.02,0c4.143,0,7.5-3.358,7.5-7.5c0-0.285-0.016-0.566-0.047-0.843l-5.691-147.977
	c0.11-0.834,0.078-1.685-0.097-2.519l-3.547-92.218V128.601l90.184,90.181c2.93,2.929,7.678,2.929,10.607,0l37.45-37.45
	C469.679,178.54,469.828,174.061,467.228,171.089z M178.839,241.866c0.004-0.096,0.006-0.192,0.006-0.288V118.937
	c12.914,3.326,22.483,15.07,22.483,29.007v61.218c0,34.087-8.756,68.001-24.997,97.907L178.839,241.866z M313.652,241.866
	l2.532,65.834c-16.462-30.059-25.345-64.209-25.345-98.537v-61.218c0-14.053,9.731-25.87,22.808-29.082v122.716
	C313.646,241.674,313.648,241.771,313.652,241.866z M424.133,202.872l-97.684-97.68c-1.436-1.435-3.355-2.179-5.307-2.179
	c-0.118-0.005-0.234-0.018-0.354-0.018c-24.785,0-44.95,20.165-44.95,44.95v61.218c0,45.79,14.725,91.287,41.495,128.423
	l5.381,139.905H280.88l-27.203-199.487c-0.507-3.716-3.681-6.487-7.432-6.487s-6.925,2.771-7.432,6.487l-27.203,199.487h-41.834
	l5.399-140.378c26.554-37.049,41.153-82.355,41.153-127.95v-61.218c0-24.785-20.165-44.95-44.95-44.95
	c-0.088,0-0.174,0.01-0.261,0.013c-0.102,0.003-0.203,0.008-0.305,0.015c-0.245,0.018-0.487,0.049-0.725,0.09
	c-0.146,0.025-0.29,0.055-0.435,0.089c-0.205,0.048-0.408,0.102-0.606,0.167c-0.161,0.052-0.318,0.111-0.475,0.174
	c-0.105,0.042-0.207,0.089-0.31,0.136c-0.809,0.366-1.567,0.86-2.219,1.512l-97.684,97.68l-27.186-27.186L151.236,49.908
	c8.993-10.277,21.983-16.172,35.64-16.172h19.817c11.993,7.12,25.724,10.866,39.61,10.866c3.128,0,6.266-0.19,9.391-0.573
	c4.111-0.505,7.035-4.247,6.53-8.358c-0.505-4.111-4.243-7.035-8.358-6.531c-12.966,1.591-26.152-0.968-37.57-7.203V15h59.9v11.236
	c0,4.142,3.357,7.5,7.5,7.5h21.92c13.656,0,26.646,5.895,35.64,16.172l110.063,125.779L424.133,202.872z"/>
<g>
</g>
<g>
</g>
<g>
</g>
<g>
</g>
<g>
</g>
<g>
</g>
<g>
</g>
<g>
</g>
<g>
</g>
<g>
</g>
<g>
</g>
<g>
</g>
<g>
</g>
<g>
</g>
<g>
</g>
</svg>
