<svg height="512pt" viewBox="-82 0 512 512.00001" width="512pt" xmlns="http://www.w3.org/2000/svg"><path d="m274.265625 182.84375c0-5.050781-4.09375-9.140625-9.140625-9.140625v27.425781c5.046875 0 9.140625-4.09375 9.140625-9.144531zm0 0"/><path d="m210.269531 0h-73.136719c-31.773437.0625-58.699218 23.40625-63.265624 54.851562h199.667968c-4.5625-31.445312-31.488281-54.789062-63.265625-54.851562zm0 0"/><path d="m274.265625 91.421875v-18.285156h-201.128906v18.285156zm0 0"/><path d="m91.421875 155.417969c5.050781 0 9.144531 4.09375 9.144531 9.140625v22.949218c12.1875-11.699218 25.210938-22.5 38.960938-32.320312 7.601562-5.488281 14.746094-11.578125 21.375-18.210938l15.449218-15.449218c2.78125-2.78125 7.03125-3.476563 10.550782-1.71875l71.238281 35.609375h6.984375c6.769531.023437 13.285156 2.566406 18.285156 7.128906v-52.839844h-219.414062v52.839844c4.996094-4.5625 11.515625-7.105469 18.285156-7.128906zm0 0"/><path d="m246.839844 210.269531v-40.058593l-62.167969-31.085938-10.789063 10.789062c-7.332031 7.320313-15.238281 14.046876-23.640624 20.113282-18.042969 12.671875-34.636719 27.292968-49.476563 43.597656 1.78125 33.949219 29.796875 60.582031 63.792969 60.640625h18.285156c35.304688.042969 63.957031-28.542969 63.996094-63.847656 0-.050781 0-.097657 0-.148438zm-92.746094-13.226562 9.140625-18.285157c2.257813-4.519531 7.75-6.351562 12.269531-4.097656 4.519532 2.257813 6.351563 7.75 4.09375 12.269532l-6.199218 12.371093 4.480468 4.480469c3.632813 3.507812 3.734375 9.292969.226563 12.925781-3.507813 3.632813-9.296875 3.730469-12.925781.226563-.078126-.074219-.152344-.152344-.226563-.226563l-9.144531-9.144531c-2.769532-2.773438-3.460938-7.007812-1.714844-10.519531zm39.722656 53.125-1.929687.976562c-12.890625 6.398438-28.03125 6.398438-40.921875 0l-1.964844-.996093c-4.578125-2.132813-6.554688-7.574219-4.421875-12.148438 2.132813-4.578125 7.574219-6.554688 12.148437-4.421875.167969.078125.335938.164063.5.25l1.929688.980469c7.722656 3.820312 16.78125 3.820312 24.503906 0l1.890625-.960938c4.4375-2.410156 9.988281-.769531 12.398438 3.667969 2.410156 4.4375.765625 9.988281-3.667969 12.398437-.164062.089844-.332031.171876-.503906.253907zm7.3125-67.324219v-9.140625c0-5.050781 4.09375-9.144531 9.140625-9.144531 5.050781 0 9.144531 4.09375 9.144531 9.144531v9.140625c0 5.050781-4.09375 9.140625-9.144531 9.140625-5.046875 0-9.140625-4.089844-9.140625-9.140625zm0 0"/><path d="m283.410156 212.28125c-5 4.566406-11.515625 7.109375-18.285156 7.132812h-.675781c-3.066407 27.714844-20.042969 51.964844-45.035157 64.332032v45.371094h73.136719l6.308594-18.902344c4.246094-12.738282 3.675781-26.59375-1.609375-38.9375-4.167969-9.152344-7.640625-18.609375-10.386719-28.285156-2.304687-8.804688-3.472656-17.871094-3.472656-26.972657zm0 0"/><path d="m73.136719 191.984375c0 5.050781 4.09375 9.144531 9.144531 9.144531v-27.425781c-5.050781 0-9.144531 4.09375-9.144531 9.140625zm0 0"/><path d="m164.558594 292.550781c-6.152344-.019531-12.289063-.730469-18.285156-2.121093v45.410156l27.429687 47.988281 27.425781-47.988281v-45.402344c-5.996094 1.386719-12.128906 2.09375-18.285156 2.113281zm0 0"/><path d="m306.320312 511.964844h41.082032v-54.855469h-41.082032c5.933594 17.804687 5.933594 37.050781 0 54.855469zm0 0"/><path d="m176.921875 410.742188c-.238281.089843-.457031.21875-.707031.292968-.816406.238282-1.660156.359375-2.511719.363282-.847656-.003907-1.6875-.128907-2.496094-.363282-.246093-.074218-.46875-.203125-.703125-.292968-.128906-.054688-.257812 0-.386718-.082032l-32.984376-14.125v42.289063h73.136719v-42.289063l-32.964843 14.125c-.128907.054688-.257813.027344-.382813.082032zm0 0"/><path d="m195.167969 383.113281 28.238281-12.105469-12.101562-16.136718zm0 0"/><path d="m137.132812 457.109375h73.136719v54.855469h-73.136719zm0 0"/><path d="m301.691406 347.402344h-73.136718l16.457031 21.941406c3.027343 4.039062 2.207031 9.769531-1.832031 12.800781-.582032.4375-1.210938.800781-1.878907 1.085938l-12.746093 5.488281v123.246094h58.117187c7.949219-17.9375 7.75-38.4375-.546875-56.21875l-1.832031-3.863282c-.582031-1.222656-.886719-2.558593-.886719-3.914062v-36.570312c0-5.046876 4.09375-9.140626 9.144531-9.140626 5.046875 0 9.140625 4.09375 9.140625 9.140626v27.429687h45.710938v-45.714844c-.027344-25.230469-20.476563-45.679687-45.710938-45.710937zm0 0"/><path d="m40.855469 458.671875-40.855469-1.277344v54.570313h41.3125c-6.015625-17.230469-6.175781-35.960938-.457031-53.292969zm0 0"/><path d="m54.851562 329.121094h73.140626v-45.253906c-25.015626-12.4375-42.019532-36.699219-45.171876-64.453126h-.539062c-6.769531-.023437-13.289062-2.566406-18.285156-7.132812v3.738281c0 9.101563-1.167969 18.167969-3.476563 26.972657-2.742187 9.675781-6.214843 19.132812-10.382812 28.285156-5.285157 12.34375-5.859375 26.199218-1.609375 38.9375zm0 0"/><path d="m136.101562 354.871094-12.105468 16.136718 28.238281 12.105469zm0 0"/><path d="m118.847656 347.402344h-73.136718c-25.234376.03125-45.679688 20.480468-45.710938 45.710937v45.996094l46.203125 1.445313-.089844-29.101563c-.03125-5.046875 4.039063-9.164063 9.085938-9.195313h.054687c5.03125 0 9.113282 4.058594 9.144532 9.085938l.109374 36.625c-.082031.753906-.257812 1.492188-.519531 2.203125v.082031c-.097656 2.230469-.992187 4.351563-2.523437 5.980469-8.605469 17.5625-8.742188 38.089844-.375 55.765625h57.757812v-123.308594l-12.742187-5.488281c-4.636719-1.996094-6.777344-7.375-4.777344-12.011719.28125-.65625.640625-1.273437 1.066406-1.847656zm0 0"/></svg>