<?xml version="1.0" encoding="iso-8859-1"?>
<!-- Generator: Adobe Illustrator 19.0.0, SVG Export Plug-In . SVG Version: 6.00 Build 0)  -->
<svg version="1.1" id="Layer_1" xmlns="http://www.w3.org/2000/svg" xmlns:xlink="http://www.w3.org/1999/xlink" x="0px" y="0px"
	 viewBox="0 0 490 490" style="enable-background:new 0 0 490 490;" xml:space="preserve">
<g>
	<g>
		<path d="M330,30h-30V0H190v30h-30c-49.626,0-90,40.374-90,90v70h60v300h100V350h30v140h100V190h60v-70
			C420,70.374,379.626,30,330,30z M220,30h50v30h-50V30z M130,160h-30v-40c0-33.084,26.916-60,60-60h30v125
			c0,17.601-13.062,32.203-30,34.637V115h-30V160z M330,460h-40V320h-90v140h-40V249.789c33.511-2.564,60-30.631,60-64.789V90h50v95
			c0,34.157,26.489,62.224,60,64.789V460z M390,160h-30v-45h-30v104.637c-16.938-2.434-30-17.036-30-34.637V60h30
			c33.084,0,60,26.916,60,60V160z"/>
	</g>
</g>
<g>
</g>
<g>
</g>
<g>
</g>
<g>
</g>
<g>
</g>
<g>
</g>
<g>
</g>
<g>
</g>
<g>
</g>
<g>
</g>
<g>
</g>
<g>
</g>
<g>
</g>
<g>
</g>
<g>
</g>
</svg>
