<?xml version="1.0" encoding="iso-8859-1"?>
<!-- Generator: Adobe Illustrator 16.0.0, SVG Export Plug-In . SVG Version: 6.00 Build 0)  -->
<!DOCTYPE svg PUBLIC "-//W3C//DTD SVG 1.1//EN" "http://www.w3.org/Graphics/SVG/1.1/DTD/svg11.dtd">
<svg version="1.1" id="Capa_1" xmlns="http://www.w3.org/2000/svg" xmlns:xlink="http://www.w3.org/1999/xlink" x="0px" y="0px"
	 width="612.004px" height="612.004px" viewBox="0 0 612.004 612.004" style="enable-background:new 0 0 612.004 612.004;"
	 xml:space="preserve">
<g>
	<g>
		<path d="M501.411,303.57c-8.339,0-15.089,6.75-15.089,15.09v159.853H295.196v-85.706c0-8.339-5.01-14.888-13.339-14.888h-63.173
			c-8.339,0-14.022,6.559-14.022,14.888v85.706h-70.416V318.66c0-8.34-6.75-15.09-15.089-15.09s-15.089,6.75-15.089,15.09v171.954
			c0,8.339,3.38,18.076,11.719,18.076h388.139c8.339,0,12.575-9.737,12.575-18.076V318.66
			C516.502,310.32,509.74,303.57,501.411,303.57z M234.839,408.087h30.178v70.416h-30.178V408.087z"/>
		<path d="M608.756,317.382L442.011,108.982c-2.726-3.41-6.79-5.462-11.146-5.653c-4.376-0.201-11.105,1.529-14.093,4.688
			l-71.271,72.518v-62.127c0-8.339-1.721-12.101-10.06-12.101h-75.746c-8.339,0-14.787,3.762-14.787,12.101v44.221
			c-10.06-3.37-11.88-3.42-16.97,0.06L6.583,314.364c-6.87,4.708-8.661,14.104-3.953,20.974c2.927,4.266,7.635,6.559,12.443,6.559
			c2.938,0,5.895-0.854,8.51-2.646l212.483-145.66L436.348,339.02c6.75,4.909,16.186,3.391,21.074-3.35
			c4.899-6.739,3.4-16.176-3.35-21.074l-109.637-77.779c2.193-2.615,1.046-5.955,1.046-9.637v-7.595
			c10.06-0.503,8.762-1.771,11.136-4.275l71.381-73.956l156.555,194.88c2.977,3.731,7.686,5.663,12.111,5.663
			c3.309,0,6.789-1.076,9.576-3.31C612.748,333.387,613.967,323.891,608.756,317.382z M272.12,184.206
			c0.181-0.925,2.947-1.871,2.947-2.847v-44.875h40.237v81.008L272.12,184.206z"/>
	</g>
</g>
<g>
</g>
<g>
</g>
<g>
</g>
<g>
</g>
<g>
</g>
<g>
</g>
<g>
</g>
<g>
</g>
<g>
</g>
<g>
</g>
<g>
</g>
<g>
</g>
<g>
</g>
<g>
</g>
<g>
</g>
</svg>
