<?xml version="1.0" encoding="iso-8859-1"?>
<!-- Generator: Adobe Illustrator 19.0.0, SVG Export Plug-In . SVG Version: 6.00 Build 0)  -->
<svg version="1.1" id="Capa_1" xmlns="http://www.w3.org/2000/svg" xmlns:xlink="http://www.w3.org/1999/xlink" x="0px" y="0px"
	 viewBox="0 0 512 512" style="enable-background:new 0 0 512 512;" xml:space="preserve">
<g>
	<g>
		<polygon points="168.417,181.009 79.621,195.689 109.431,370.291 198.227,355.612 		"/>
	</g>
</g>
<g>
	<g>
		<path d="M429.6,166.116l1.234-7.228c6.759-39.587-4.218-79.896-30.116-110.59C374.82,17.604,336.934,0,296.774,0h-89.376
			c-40.16,0-78.046,17.604-103.944,48.298c-25.898,30.694-36.875,71.003-30.116,110.59l1.234,7.227l88.796-14.678l-1.314-7.694
			c-2.319-13.588,1.298-26.872,10.187-37.407C181.129,95.802,193.615,90,207.398,90h89.376c13.784,0,26.269,5.802,35.158,16.336
			c8.888,10.534,12.506,23.818,10.186,37.406l-1.314,7.695l-14.203-2.348l-10.635,64.331l114.012,18.848l10.635-64.331
			L429.6,166.116z"/>
	</g>
</g>
<g>
	<g>
		
			<rect x="340.913" y="217.716" transform="matrix(0.1631 -0.9866 0.9866 0.1631 33.0512 589.9549)" width="46.716" height="115.559"/>
	</g>
</g>
<g>
	<g>
		<path d="M298.561,318.708l-10.635,64.332l12.703,2.1C294.63,406.778,274.98,422,252.086,422c-22.894,0-42.544-15.222-48.543-36.86
			l-88.978,14.709c6.331,30.799,22.888,58.73,46.981,79.058C186.84,500.248,218.994,512,252.086,512
			c33.092,0,65.247-11.752,90.539-33.093c24.092-20.328,40.649-48.259,46.98-79.058l12.332,2.039l10.635-64.331L298.561,318.708z"/>
	</g>
</g>
<g>
</g>
<g>
</g>
<g>
</g>
<g>
</g>
<g>
</g>
<g>
</g>
<g>
</g>
<g>
</g>
<g>
</g>
<g>
</g>
<g>
</g>
<g>
</g>
<g>
</g>
<g>
</g>
<g>
</g>
</svg>
