<?xml version="1.0" encoding="iso-8859-1"?>
<!-- Generator: Adobe Illustrator 19.0.0, SVG Export Plug-In . SVG Version: 6.00 Build 0)  -->
<svg version="1.1" id="Capa_1" xmlns="http://www.w3.org/2000/svg" xmlns:xlink="http://www.w3.org/1999/xlink" x="0px" y="0px"
	 viewBox="0 0 480.022 480.022" style="enable-background:new 0 0 480.022 480.022;" xml:space="preserve">
<g>
	<g>
		<rect x="48.023" y="128.008" width="16" height="16"/>
	</g>
</g>
<g>
	<g>
		<rect x="96.023" y="128.008" width="16" height="16"/>
	</g>
</g>
<g>
	<g>
		<rect x="48.023" y="208.008" width="16" height="16"/>
	</g>
</g>
<g>
	<g>
		<rect x="96.023" y="208.008" width="16" height="16"/>
	</g>
</g>
<g>
	<g>
		<path d="M157.623,320.008c5.339-14.007,1.663-29.853-9.296-40.08c10.908-10.19,14.581-25.96,9.296-39.92
			c5.339-14.007,1.663-29.853-9.296-40.08c10.889-10.201,14.558-25.958,9.296-39.92c6.266-16.492,0.034-35.114-14.896-44.512
			c-4.971-17.058-21.07-28.418-38.808-27.384c-14.095-10.85-33.729-10.85-47.824,0c-17.732-1.026-33.822,10.332-38.792,27.384
			c-14.924,9.403-21.149,28.024-14.88,44.512c-5.288,13.957-1.623,29.727,9.28,39.92c-10.954,10.231-14.622,26.076-9.28,40.08
			c-5.288,13.957-1.623,29.727,9.28,39.92c-10.954,10.231-14.622,26.076-9.28,40.08c-6.269,16.488-0.044,35.109,14.88,44.512
			c4.994,17.042,21.078,28.391,38.808,27.384c6.846,5.293,15.258,8.159,23.912,8.144c8.654,0.015,17.066-2.851,23.912-8.144
			c17.727,0.998,33.806-10.348,38.808-27.384C157.667,355.117,163.892,336.495,157.623,320.008z M18.287,156.416
			c-5.255-10.513-0.992-23.294,9.52-28.549c0.05-0.025,0.101-0.05,0.152-0.075c2.214-1.137,3.772-3.24,4.216-5.688
			c2.363-11.782,13.57-19.624,25.448-17.808c2.396,0.362,4.824-0.413,6.568-2.096c8.899-8.33,22.733-8.33,31.632,0
			c1.746,1.679,4.172,2.453,6.568,2.096c11.885-1.83,23.105,6.017,25.464,17.808c0.444,2.449,2.003,4.551,4.216,5.688
			c10.554,5.171,14.918,17.918,9.747,28.472c-0.025,0.051-0.05,0.101-0.075,0.152c-1.141,2.264-1.141,4.936,0,7.2
			c3.842,7.613,2.708,16.792-2.872,23.24c-7.253-12.267-20.721-19.486-34.952-18.736c-14.095-10.85-33.729-10.85-47.824,0
			c-14.235-0.75-27.707,6.473-34.96,18.744c-5.589-6.451-6.72-15.642-2.864-23.256C19.414,161.348,19.42,158.681,18.287,156.416z
			 M132.223,352.165c-0.05,0.025-0.101,0.05-0.152,0.075c-2.214,1.137-3.772,3.239-4.216,5.688
			c-2.329,11.794-13.554,19.647-25.432,17.792c-2.396-0.356-4.821,0.418-6.568,2.096c-8.899,8.33-22.733,8.33-31.632,0
			c-1.478-1.399-3.437-2.178-5.472-2.176c-0.367-0.001-0.733,0.026-1.096,0.08c-11.894,1.857-23.136-6-25.48-17.808
			c-0.444-2.449-2.003-4.551-4.216-5.688c-10.554-5.171-14.918-17.918-9.747-28.472c0.025-0.051,0.05-0.101,0.075-0.152
			c1.141-2.264,1.141-4.936,0-7.2c-5.255-10.513-0.992-23.294,9.52-28.549c0.05-0.025,0.101-0.05,0.152-0.075
			c2.214-1.137,3.772-3.24,4.216-5.688c2.374-11.773,13.576-19.605,25.448-17.792c2.396,0.354,4.82-0.419,6.568-2.096
			c8.899-8.33,22.733-8.33,31.632,0c1.75,1.672,4.173,2.445,6.568,2.096c11.884-1.826,23.101,6.019,25.464,17.808
			c0.444,2.448,2.003,4.551,4.216,5.688c10.554,5.171,14.918,17.918,9.747,28.472c-0.025,0.051-0.05,0.101-0.075,0.152
			c-1.141,2.264-1.141,4.936,0,7.2C146.997,334.128,142.735,346.91,132.223,352.165z M138.879,266.872
			c-7.261-12.263-20.728-19.483-34.96-18.744c-14.095-10.85-33.729-10.85-47.824,0c-14.223-0.736-27.681,6.477-34.944,18.728
			c-5.589-6.451-6.72-15.642-2.864-23.256c1.141-2.264,1.141-4.936,0-7.2c-5.255-10.513-0.992-23.294,9.52-28.549
			c0.05-0.025,0.101-0.05,0.152-0.075c2.214-1.137,3.772-3.239,4.216-5.688c2.37-11.775,13.575-19.609,25.448-17.792
			c2.395,0.351,4.819-0.423,6.568-2.096c8.899-8.33,22.733-8.33,31.632,0c1.75,1.672,4.173,2.445,6.568,2.096
			c11.885-1.83,23.105,6.017,25.464,17.808c0.444,2.448,2.003,4.551,4.216,5.688c10.554,5.171,14.918,17.918,9.747,28.472
			c-0.025,0.051-0.05,0.101-0.075,0.152c-1.141,2.264-1.141,4.936,0,7.2C145.599,251.23,144.467,260.421,138.879,266.872z"/>
	</g>
</g>
<g>
	<g>
		<rect x="48.023" y="288.008" width="16" height="16"/>
	</g>
</g>
<g>
	<g>
		<rect x="96.023" y="288.008" width="16" height="16"/>
	</g>
</g>
<g>
	<g>
		<rect x="48.023" y="336.008" width="16" height="16"/>
	</g>
</g>
<g>
	<g>
		<rect x="96.023" y="336.008" width="16" height="16"/>
	</g>
</g>
<g>
	<g>
		<path d="M472.059,129.454c-4.687-5.868-11.073-10.142-18.285-12.239l0.008-0.016c-9.744-2.814-20.219-1.461-28.928,3.736
			l-0.8,0.504v-17.432c0-4.418-3.582-8-8-8H208.023c-4.418,0-8,3.582-8,8v32c-0.371,41.087,19.128,79.824,52.352,104h-60.352
			c-4.418,0-8,3.582-8,8c0.026,22.08,17.92,39.974,40,40h176c22.08-0.026,39.974-17.92,40-40c0-4.418-3.582-8-8-8h-62.968
			c12.44-8.761,23.267-19.612,32-32.072c9.867-0.812,19.578-2.965,28.864-6.4c13.143-5.055,25.426-12.109,36.416-20.912
			C482.046,168.075,484.609,145.165,472.059,129.454z M422.655,256.008c-3.403,9.582-12.464,15.988-22.632,16h-176
			c-10.168-0.012-19.229-6.418-22.632-16H422.655z M408.023,136.008c-0.652,46.12-29.186,87.245-72.16,104h-50.592
			c-42.344-17.041-69.856-58.36-69.248-104v-24h192V136.008z M456.351,168.12c-9.711,7.773-20.56,14.003-32.168,18.472
			c-4.158,1.566-8.439,2.781-12.8,3.632c7.593-15.624,11.833-32.664,12.448-50.024l9.24-5.544
			c9.654-5.816,22.196-2.705,28.012,6.949c0.282,0.468,0.544,0.946,0.788,1.435C466.142,151.66,463.846,162.09,456.351,168.12z"/>
	</g>
</g>
<g>
	<g>
		<path d="M431.558,322.819c-6.198-6.53-14.945-10.019-23.936-9.547h0.016l-124.384,6.56
			c-12.402-10.705-28.377-16.354-44.752-15.824c-31.4,0-56,17.6-56,40c0,22.4,24.6,40,56,40c16.364,0.522,32.326-5.126,44.72-15.824
			l124.392,6.56c8.433,0.43,16.675-2.611,22.808-8.416C442.751,354.627,443.259,335.147,431.558,322.819z M419.423,354.72
			c-2.942,2.787-6.897,4.248-10.944,4.04l-128-6.744c-2.462-0.13-4.847,0.882-6.464,2.744c-9.511,9.114-22.356,13.906-35.512,13.248
			c-21.68,0-40-10.992-40-24s18.32-24,40-24c13.145-0.649,25.977,4.143,35.48,13.248c1.609,1.872,3.999,2.887,6.464,2.744l128-6.744
			c8.149-0.425,15.101,5.836,15.526,13.986c0.225,4.311-1.446,8.504-4.574,11.478H419.423z"/>
	</g>
</g>
<g>
	<g>
		<path d="M247.815,158.184l-15.584,3.648c4.367,16.799,13.434,32.004,26.136,43.832l11.312-11.312
			C259.112,184.61,251.53,172.067,247.815,158.184z"/>
	</g>
</g>
<g>
	<g>
		<rect x="232.023" y="128.008" width="16" height="16"/>
	</g>
</g>
<g>
</g>
<g>
</g>
<g>
</g>
<g>
</g>
<g>
</g>
<g>
</g>
<g>
</g>
<g>
</g>
<g>
</g>
<g>
</g>
<g>
</g>
<g>
</g>
<g>
</g>
<g>
</g>
<g>
</g>
</svg>
