<svg xmlns="http://www.w3.org/2000/svg" height="583pt" version="1.1" viewBox="-9 0 583 583.49828" width="583pt">
<g id="surface1">
<path d="M 10.75 350.578125 L 553.136719 350.578125 C 558.941406 350.578125 563.644531 345.875 563.644531 340.070312 C 563.644531 306.394531 539.898438 282.910156 529.652344 274.347656 C 529.179688 244.085938 519.148438 99.292969 378.191406 44.761719 L 378.191406 21.015625 C 378.191406 9.410156 368.78125 0 357.175781 0 L 206.710938 0 C 195.105469 0 185.695312 9.410156 185.695312 21.015625 L 185.695312 44.761719 C 44.582031 99.347656 34.707031 244.136719 34.234375 274.347656 C 24.039062 282.910156 0.242188 306.394531 0.242188 340.070312 C 0.242188 345.875 4.945312 350.578125 10.75 350.578125 Z M 206.710938 21.015625 L 271.4375 21.015625 L 271.4375 136.121094 C 271.4375 141.925781 276.136719 146.628906 281.945312 146.628906 C 287.75 146.628906 292.449219 141.925781 292.449219 136.121094 L 292.449219 21.015625 L 357.125 21.015625 L 357.125 171.425781 L 206.710938 171.425781 Z M 48.363281 290.003906 L 281.941406 290.003906 C 287.746094 290.003906 292.449219 285.300781 292.449219 279.496094 C 292.449219 273.691406 287.746094 268.988281 281.941406 268.988281 L 55.300781 268.988281 C 56.402344 233.789062 69.0625 117.15625 185.746094 67.457031 L 185.746094 171.429688 C 185.746094 183.035156 195.15625 192.441406 206.761719 192.441406 L 357.125 192.441406 C 368.726562 192.441406 378.136719 183.035156 378.136719 171.429688 L 378.136719 67.457031 C 513.316406 125.035156 508.796875 272.613281 508.796875 279.074219 C 508.644531 282.679688 510.347656 286.109375 513.316406 288.164062 C 513.316406 288.164062 536.328125 304.449219 541.683594 329.617188 L 22.410156 329.617188 C 26.621094 313.980469 35.710938 300.101562 48.363281 290.003906 Z M 48.363281 290.003906 " style=" stroke:none;fill-rule:nonzero;fill:rgb(0%,0%,0%);fill-opacity:1;" />
<path d="M 454.15625 268.988281 L 340.363281 268.988281 C 334.558594 268.988281 329.855469 273.691406 329.855469 279.496094 C 329.855469 285.300781 334.558594 290 340.363281 290 L 454.15625 290 C 459.964844 290 464.664062 285.300781 464.664062 279.496094 C 464.667969 273.691406 459.964844 268.988281 454.15625 268.988281 Z M 454.15625 268.988281 " style=" stroke:none;fill-rule:nonzero;fill:rgb(0%,0%,0%);fill-opacity:1;" />
<path d="M 555.1875 443.359375 L 512.738281 443.359375 C 500.8125 398.808594 475.59375 392.503906 471.914062 391.820312 C 471.269531 391.761719 470.617188 391.761719 469.972656 391.820312 L 97.960938 391.820312 C 97.3125 391.761719 96.664062 391.761719 96.015625 391.820312 C 92.335938 392.503906 67.121094 398.804688 55.195312 443.359375 L 10.75 443.359375 C 4.945312 443.359375 0.242188 448.058594 0.242188 453.863281 L 0.242188 514.441406 C 0.242188 520.246094 4.945312 524.945312 10.75 524.945312 L 53.144531 524.945312 C 57.226562 537.496094 64.789062 548.625 74.949219 557.046875 C 120.390625 595.242188 209.808594 580.164062 213.59375 579.480469 C 216.324219 579.011719 218.761719 577.484375 220.371094 575.222656 L 283.992188 485.4375 L 347.664062 575.222656 C 349.273438 577.484375 351.710938 579.011719 354.441406 579.480469 C 369.332031 581.84375 384.390625 583.019531 399.464844 583 C 429.570312 583 467.761719 578.164062 493.085938 557.046875 C 503.246094 548.625 510.808594 537.496094 514.890625 524.945312 L 555.289062 524.945312 C 561.09375 524.945312 565.796875 520.246094 565.796875 514.441406 L 565.796875 453.863281 C 565.796875 448.058594 561.09375 443.359375 555.289062 443.359375 C 555.253906 443.359375 555.222656 443.359375 555.1875 443.359375 Z M 49.3125 503.933594 L 21.253906 503.933594 L 21.253906 464.371094 L 51.097656 464.371094 C 49.652344 475.503906 48.945312 486.714844 48.996094 497.941406 C 48.996094 499.992188 49.152344 501.988281 49.3125 503.933594 Z M 479.585938 540.707031 C 446.59375 568.5 379.765625 561.722656 362.21875 559.148438 L 294.605469 464.054688 C 292.234375 460.710938 288.132812 459.042969 284.097656 459.800781 C 280.0625 459.042969 275.960938 460.710938 273.589844 464.054688 L 205.765625 559.410156 C 188.375 561.773438 121.445312 568.710938 88.398438 540.96875 C 75.886719 530.308594 69.082031 514.40625 70.011719 497.996094 C 70.011719 426.914062 95.492188 413.9375 99.378906 412.675781 L 468.449219 412.675781 C 472.96875 414.460938 497.921875 427.648438 497.921875 497.996094 C 498.851562 514.40625 492.046875 530.308594 479.535156 540.96875 Z M 544.730469 503.933594 L 518.464844 503.933594 C 518.464844 501.988281 518.726562 499.992188 518.726562 497.996094 C 518.773438 486.765625 518.070312 475.554688 516.625 464.421875 L 544.46875 464.421875 Z M 544.730469 503.933594 " style=" stroke:none;fill-rule:nonzero;fill:rgb(0%,0%,0%);fill-opacity:1;" />
</g>
</svg>