<?xml version="1.0" encoding="iso-8859-1"?>
<!-- Generator: Adobe Illustrator 19.0.0, SVG Export Plug-In . SVG Version: 6.00 Build 0)  -->
<svg version="1.1" id="Capa_1" xmlns="http://www.w3.org/2000/svg" xmlns:xlink="http://www.w3.org/1999/xlink" x="0px" y="0px"
	 viewBox="0 0 480 480" style="enable-background:new 0 0 480 480;" xml:space="preserve">
<g>
	<g>
		<path d="M312,160c-13.255,0-24,10.745-24,24v8h16v-8c0-4.418,3.582-8,8-8s8,3.582,8,8v8h16v-8C336,170.745,325.255,160,312,160z"
			/>
	</g>
</g>
<g>
	<g>
		<path d="M392,160c-13.255,0-24,10.745-24,24v8h16v-8c0-4.418,3.582-8,8-8s8,3.582,8,8v8h16v-8C416,170.745,405.255,160,392,160z"
			/>
	</g>
</g>
<g>
	<g>
		<path d="M320,208v16c0,17.673,14.327,32,32,32c17.673,0,32-14.327,32-32v-16H320z M352,240c-8.837,0-16-7.163-16-16h32
			C368,232.837,360.837,240,352,240z"/>
	</g>
</g>
<g>
	<g>
		<path d="M472,280h-80v-0.84c28.807-13.272,49.216-39.895,54.552-71.16H456c13.255,0,24-10.745,24-24s-10.745-24-24-24h-8v-24
			c-0.056-36.213-22.273-68.701-56-81.888V40c0-22.091-17.909-40-40-40c-22.091,0-40,17.909-40,40v14.112
			C278.273,67.299,256.056,99.787,256,136v24h-8c-13.255,0-24,10.745-24,24s10.745,24,24,24h9.448
			c5.336,31.265,25.745,57.888,54.552,71.16V280H173.192L144,214.304V168c0-4.418-3.582-8-8-8h-24V0H83.312
			c-9.369-0.026-18.359,3.695-24.968,10.336c-3.613,3.635-8.53,5.674-13.656,5.664H0v96h44.688
			c9.369,0.026,18.359-3.695,24.968-10.336c3.614-3.635,8.53-5.674,13.656-5.664H96v64h-8c-4.418,0-8,3.582-8,8v48
			c0,1.019,0.192,2.029,0.568,2.976l39.952,99.88c6.032,15.223,20.77,25.2,37.144,25.144H224v128c0,4.418,3.582,8,8,8h240
			c4.418,0,8-3.582,8-8V288C480,283.582,476.418,280,472,280z M448,176h8c4.418,0,8,3.582,8,8s-3.582,8-8,8h-8V176z M256,192h-8
			c-4.418,0-8-3.582-8-8s3.582-8,8-8h8V192z M328,40c0-13.255,10.745-24,24-24s24,10.745,24,24v8h-48V40z M344,64h16
			c36.651,0.045,67.436,27.581,71.552,64H424c-13.255,0-24-10.745-24-24c0-4.418-3.582-8-8-8h-16c-4.418,0-8,3.582-8,8
			c0,13.255-10.745,24-24,24h-71.552C276.564,91.581,307.349,64.045,344,64z M272,192v-48h72c19.001-0.024,35.373-13.389,39.2-32
			h1.6c3.827,18.611,20.199,31.976,39.2,32h8v48c0,44.183-35.817,80-80,80C307.817,272,272,236.183,272,192z M376,296
			c0,13.255-10.745,24-24,24s-24-10.745-24-24H376z M312,296c0,22.091,17.909,40,40,40c22.091,0,40-17.909,40-40h18.52l-39.272,72
			h-38.496l-39.272-72H312z M368,384v48h-32v-48H368z M83.312,80c-9.369-0.026-18.359,3.695-24.968,10.336
			c-3.614,3.635-8.53,5.674-13.656,5.664H16V32h28.688c9.369,0.026,18.359-3.695,24.968-10.336c3.614-3.635,8.53-5.674,13.656-5.664
			H96v64H83.312z M96,176h32v32H96V176z M192,328h-34.336c-9.824,0.034-18.665-5.953-22.28-15.088L99.816,224H130.8l29.888,67.248
			c1.284,2.89,4.15,4.752,7.312,4.752h24V328z M464,464H240V336c0-4.418-3.582-8-8-8h-24v-32h67.248L320,378.04V440
			c0,4.418,3.582,8,8,8h48c4.418,0,8-3.582,8-8v-61.96L428.752,296H464V464z"/>
	</g>
</g>
<g>
</g>
<g>
</g>
<g>
</g>
<g>
</g>
<g>
</g>
<g>
</g>
<g>
</g>
<g>
</g>
<g>
</g>
<g>
</g>
<g>
</g>
<g>
</g>
<g>
</g>
<g>
</g>
<g>
</g>
</svg>
