<svg height="512pt" viewBox="-77 0 512 512.00038" width="512pt" xmlns="http://www.w3.org/2000/svg"><path d="m349.867188 435.199219h-8.53125v-51.199219c-.144532-40.972656-26.742188-77.15625-65.800782-89.523438 14.929688-18.378906 23.097656-41.328124 23.132813-65.007812v-7.601562c18.851562 0 34.132812-15.28125 34.132812-34.132813s-15.28125-34.136719-34.132812-34.136719v-27.144531c.386719-12.515625 1.886719-24.976563 4.480469-37.230469 5.117187-28.160156 10.375-57.257812-15.457032-79.359375-7.394531-6.351562-16.820312-9.847656-26.570312-9.863281h-163.292969c-9.75 0-19.179687 3.488281-26.582031 9.832031-25.898438 22.183594-20.769532 51.4375-15.8125 79.707031 2.480468 12.160157 3.90625 24.511719 4.265625 36.917969v27.144531c-18.851563 0-34.132813 15.28125-34.132813 34.132813s15.28125 34.132813 34.132813 34.132813v7.601562c.035156 23.679688 8.203125 46.632812 23.132812 65.007812-39.046875 12.378907-65.625 48.5625-65.765625 89.523438v51.199219h-8.53125c-4.714844 0-8.535156 3.820312-8.535156 8.535156v34.132813c0 4.714843 3.820312 8.535156 8.535156 8.535156h8.53125v25.597656h17.066406v-25.597656h34.132813v25.597656h17.066406v-119.464844h-17.066406v42.664063h-34.132813v-51.199219c.125-36.914062 26.417969-68.550781 62.6875-75.425781 9.253907 7.785156 19.808594 13.878906 31.179688 18.003906v74.488281h-8.53125c-4.714844 0-8.535156 3.820313-8.535156 8.53125v85.335938c0 4.710937 3.820312 8.53125 8.535156 8.53125h119.464844c4.714844 0 8.535156-3.820313 8.535156-8.53125v-85.332032c0-4.714843-3.820312-8.535156-8.535156-8.535156h-8.53125v-74.488281c11.367187-4.125 21.921875-10.21875 31.179687-18.003906 36.269531 6.875 62.5625 38.511719 62.683594 75.425781v51.199219h-34.132813v-42.667969h-17.066406v119.46875h17.066406v-25.601562h34.132813v25.601562h17.070313v-25.601562h8.53125c4.714843 0 8.535156-3.820313 8.535156-8.53125v-34.132813c0-4.714844-3.820313-8.535156-8.535156-8.535156zm-281.601563 34.132812h-51.199219v-17.066406h51.199219zm187.734375-307.199219h-59.734375c-4.710937 0-8.53125 3.820313-8.53125 8.535157v17.066406h-17.066406v-17.066406c0-4.714844-3.820313-8.535157-8.535157-8.535157h-59.730468c-4.714844 0-8.535156 3.820313-8.535156 8.535157v5l-12.613282-12.613281 26.265625-19.695313c2.148438-1.609375 3.414063-4.140625 3.414063-6.828125v-34.132812h136.535156v34.132812c0 2.6875 1.261719 5.21875 3.410156 6.828125l26.265625 19.695313-12.609375 12.613281v-5c0-4.714844-3.820312-8.535157-8.535156-8.535157zm-8.53125 17.066407v34.132812h-42.667969v-34.132812zm-93.867188 0v34.132812h-42.667968v-34.132812zm162.132813 8.535156c0 9.425781-7.640625 17.066406-17.066406 17.066406v-34.132812c9.425781 0 17.066406 7.640625 17.066406 17.066406zm-233.378906-164.941406c4.308593-3.695313 9.796875-5.726563 15.472656-5.726563h163.292969c5.675781 0 11.164062 2.027344 15.480468 5.71875 17.5 15.007813 15.109376 33.875 9.769532 63.410156-2.808594 13.246094-4.40625 26.722657-4.769532 40.261719v18.609375l-17.066406-12.800781v-38.398437c0-4.714844-3.820312-8.535157-8.535156-8.535157v-25.597656h-17.066406v25.597656h-17.066406v-25.597656h-17.066407v25.597656h-17.066406v-25.597656h-17.066406v25.597656h-17.066407v-25.597656h-17.066406v25.597656h-17.066406v-25.597656h-17.066406v25.597656c-4.714844 0-8.535156 3.820313-8.535156 8.535157v38.398437l-17.066407 12.800781v-18.609375c-.347656-13.394531-1.875-26.734375-4.554687-39.859375-5.214844-29.722656-7.511719-48.710937 10.109375-63.804687zm-39.6875 164.941406c0-9.425781 7.640625-17.066406 17.066406-17.066406v34.132812c-9.425781 0-17.066406-7.640625-17.066406-17.066406zm187.734375 298.664063h-102.402344v-68.265626h25.601562c3.234376.003907 6.191407-1.824218 7.636719-4.71875l6.167969-12.347656h23.585938l6.171874 12.347656c1.445313 2.894532 4.402344 4.71875 7.636719 4.71875h25.597657v68.265626zm-20.328125-85.332032-6.125-12.347656c-1.453125-2.90625-4.433594-4.738281-7.679688-4.71875h-34.136719c-3.234374 0-6.191406 1.824219-7.636718 4.71875l-6.167969 12.347656h-3.261719v-44.664062l29.738282 17.84375c2.707031 1.625 6.085937 1.625 8.789062 0l29.742188-17.84375v44.664062zm3.257812-64.5625-34.132812 20.480469-34.132813-20.480469v-5.410156c5.941406 1.09375 11.964844 1.664062 18.007813 1.707031h32.253906c6.039063-.042969 12.066406-.613281 18.003906-1.707031zm-18.003906-20.769531h-32.253906c-47.644531.003906-86.269531-38.613281-86.273438-86.253906 0-.003907 0-.007813 0-.011719v-46.734375l17.066407 17.066406v22.066407c0 4.710937 3.820312 8.53125 8.535156 8.53125h59.730468c4.714844 0 8.535157-3.820313 8.535157-8.53125v-17.066407h17.066406v17.066407c0 4.710937 3.820313 8.53125 8.53125 8.53125h59.734375c4.714844 0 8.535156-3.820313 8.535156-8.53125v-22.066407l17.066406-17.066406v46.734375c0 47.644531-38.621093 86.265625-86.265624 86.265625 0 0-.003907 0-.007813 0zm146.007813 153.597656h-51.203126v-17.066406h51.203126zm0 0"/><path d="m179.199219 426.667969c-14.136719 0-25.597657 11.460937-25.597657 25.597656 0 14.140625 11.460938 25.601563 25.597657 25.601563 14.140625 0 25.601562-11.460938 25.601562-25.601563 0-14.136719-11.460937-25.597656-25.601562-25.597656zm0 34.132812c-4.710938 0-8.53125-3.820312-8.53125-8.535156 0-4.710937 3.820312-8.53125 8.53125-8.53125 4.714843 0 8.535156 3.820313 8.535156 8.53125 0 4.714844-3.820313 8.535156-8.535156 8.535156zm0 0"/><path d="m145.066406 196.265625c0 4.714844-3.820312 8.535156-8.53125 8.535156-4.714844 0-8.535156-3.820312-8.535156-8.535156 0-4.710937 3.820312-8.53125 8.535156-8.53125 4.710938 0 8.53125 3.820313 8.53125 8.53125zm0 0"/><path d="m230.402344 196.265625c0 4.714844-3.820313 8.535156-8.535156 8.535156-4.710938 0-8.53125-3.820312-8.53125-8.535156 0-4.710937 3.820312-8.53125 8.53125-8.53125 4.714843 0 8.535156 3.820313 8.535156 8.53125zm0 0"/><path d="m187.734375 281.601562h-17.066406c-4.714844 0-8.535157 3.820313-8.535157 8.53125 0 4.714844 3.820313 8.535157 8.535157 8.535157h17.066406c4.710937 0 8.53125-3.820313 8.53125-8.535157 0-4.710937-3.820313-8.53125-8.53125-8.53125zm0 0"/></svg>