<?xml version="1.0" encoding="iso-8859-1"?>
<!-- Generator: Adobe Illustrator 17.1.0, SVG Export Plug-In . SVG Version: 6.00 Build 0)  -->
<!DOCTYPE svg PUBLIC "-//W3C//DTD SVG 1.1//EN" "http://www.w3.org/Graphics/SVG/1.1/DTD/svg11.dtd">
<svg version="1.1" id="Capa_1" xmlns="http://www.w3.org/2000/svg" xmlns:xlink="http://www.w3.org/1999/xlink" x="0px" y="0px"
	 viewBox="0 0 327.25 327.25" style="enable-background:new 0 0 327.25 327.25;" xml:space="preserve">
<path d="M93.125,279.132c0,5.523-4.477,10-10,10h-1.5c-5.523,0-10-4.477-10-10s4.477-10,10-10h1.5
	C88.648,269.132,93.125,273.609,93.125,279.132z M252.613,269.132h-1.5c-5.522,0-10,4.477-10,10s4.478,10,10,10h1.5
	c5.522,0,10-4.477,10-10S258.136,269.132,252.613,269.132z M327.25,171.798v104.686c0,27.993-22.773,50.767-50.767,50.767h-72.092
	c-16.682,0-31.507-8.09-40.766-20.549c-9.26,12.46-24.085,20.549-40.766,20.549H50.767C22.774,327.25,0,304.476,0,276.483V171.798
	c0-0.344,0.018-0.688,0.053-1.029L12.528,50.223c0.188-17.822,9.613-33.459,23.697-42.373c0.232-0.167,0.467-0.331,0.717-0.48
	c0.093-0.056,0.19-0.099,0.284-0.151C44.85,2.638,53.768,0,63.292,0h12.236c8.481,0,16.384,4.563,20.624,11.908l67.474,116.867
	L231.1,11.907C235.34,4.563,243.242,0,251.723,0h12.236c9.623,0,18.627,2.694,26.303,7.364c0.004,0.002,0.008,0.004,0.011,0.006
	c0.012,0.007,0.023,0.016,0.035,0.024c14.483,8.831,24.223,24.705,24.414,42.83l12.475,120.545
	C327.232,171.11,327.25,171.454,327.25,171.798z M224.875,198.464l82.375,0.143v-11.263l-82.375-0.142V198.464z M176.313,146.798
	h18.437c13.209,0,24.451,8.549,28.505,20.401l83.48,0.144L294.778,51.796c-0.035-0.342-0.053-0.686-0.053-1.029
	c0-7.434-2.651-14.261-7.057-19.585L227.17,132.199c-1.874,3.128-5.188,4.863-8.589,4.863c-1.748,0-3.519-0.458-5.128-1.422
	c-4.738-2.837-6.279-8.979-3.441-13.717l60.602-101.19c-2.145-0.475-4.37-0.733-6.655-0.733h-12.236
	c-1.357,0-2.623,0.731-3.303,1.907L176.313,146.798z M194.75,219.875c5.583,0,10.125-4.542,10.125-10.125v-32.827
	c0-5.583-4.542-10.125-10.125-10.125h-31.125h0H132.5c-5.583,0-10.125,4.542-10.125,10.125v32.827
	c0,5.583,4.542,10.125,10.125,10.125h31.125h0H194.75z M102.375,198.602v-11.261L20,187.202v11.262L102.375,198.602z
	 M20.529,167.203l83.417,0.141c4.012-11.927,15.292-20.545,28.554-20.545h18.437L78.831,21.907C78.151,20.73,76.886,20,75.528,20
	H63.292c-2.296,0-4.532,0.261-6.686,0.74l60.598,101.183c2.837,4.738,1.297,10.88-3.441,13.717c-1.609,0.964-3.38,1.422-5.129,1.422
	c-3.4,0-6.714-1.734-8.588-4.863L39.561,31.206c-4.394,5.321-7.036,12.138-7.036,19.561c0,0.344-0.018,0.688-0.053,1.029
	L20.529,167.203z M153.625,276.493c0-0.003,0-0.006,0-0.01v-36.608H132.5c-13.53,0-25.004-8.967-28.795-21.27L20,218.464v58.02
	c0,16.965,13.802,30.767,30.767,30.767h72.092C139.821,307.25,153.62,293.453,153.625,276.493z M307.25,276.483v-57.877
	l-83.664-0.145c-3.746,12.376-15.253,21.414-28.836,21.414h-21.124v36.608c0,0.006,0,0.013,0,0.019
	c0.01,16.956,13.808,30.747,30.766,30.747h72.092C293.448,307.25,307.25,293.448,307.25,276.483z"/>
<g>
</g>
<g>
</g>
<g>
</g>
<g>
</g>
<g>
</g>
<g>
</g>
<g>
</g>
<g>
</g>
<g>
</g>
<g>
</g>
<g>
</g>
<g>
</g>
<g>
</g>
<g>
</g>
<g>
</g>
</svg>
