<?xml version="1.0" encoding="iso-8859-1"?>
<!-- Generator: Adobe Illustrator 19.0.0, SVG Export Plug-In . SVG Version: 6.00 Build 0)  -->
<svg version="1.1" id="Capa_1" xmlns="http://www.w3.org/2000/svg" xmlns:xlink="http://www.w3.org/1999/xlink" x="0px" y="0px"
	 viewBox="0 0 430 430" style="enable-background:new 0 0 430 430;" xml:space="preserve">
<g id="XMLID_20_">
	<path id="XMLID_814_" d="M320,105C320,47.103,272.897,0,215,0S110,47.103,110,105c0,15.974,3.592,31.122,10,44.69V375
		c0,30.327,24.673,55,55,55h80c30.327,0,55-24.673,55-55V149.69C316.408,136.122,320,120.974,320,105z M280,220H150v-60h130V220z
		 M255,400h-80c-13.785,0-25-11.215-25-25v-35h130v35C280,388.785,268.785,400,255,400z M140,105c0-41.355,33.645-75,75-75
		s75,33.645,75,75c0,8.764-1.525,17.175-4.301,25h-33.304c4.8-7.155,7.605-15.756,7.605-25c0-24.813-20.186-45-45-45
		s-45,20.187-45,45c0,9.244,2.805,17.845,7.605,25h-33.304C141.525,122.175,140,113.764,140,105z M200,105c0-8.271,6.729-15,15-15
		s15,6.729,15,15s-6.729,15-15,15S200,113.271,200,105z M150,310v-60h50v60H150z M230,310v-60h50v60H230z"/>
</g>
<g>
</g>
<g>
</g>
<g>
</g>
<g>
</g>
<g>
</g>
<g>
</g>
<g>
</g>
<g>
</g>
<g>
</g>
<g>
</g>
<g>
</g>
<g>
</g>
<g>
</g>
<g>
</g>
<g>
</g>
</svg>
