<svg height="512pt" viewBox="-36 0 512 512" width="512pt" xmlns="http://www.w3.org/2000/svg"><path d="m270 292c5.519531 0 10-4.480469 10-10s-4.480469-10-10-10-10 4.480469-10 10 4.480469 10 10 10zm0 0"/><path d="m250 0c-5.523438 0-10 4.476562-10 10v192c0 70.34375-57.304688 130-130 130h-20c-49.625 0-90 40.375-90 90v60c0 16.542969 13.457031 30 30 30h210c3.789062 0 7.25-2.140625 8.945312-5.527344l7.234376-14.472656h47.640624l7.234376 14.472656c1.695312 3.386719 5.15625 5.527344 8.945312 5.527344h90c16.542969 0 30-13.457031 30-30 0-24.042969 0-445.878906 0-472 0-5.523438-4.476562-10-10-10zm170 432h-79.433594c2.222656-20.261719 11.175782-39.027344 25.796875-53.640625 14.609375-14.617187 33.375-23.570313 53.636719-25.792969zm-80-312v-40h15.855469l20 20-20 20zm-80-40h20v40h-20zm40-10h20v60h-20zm97.070312 22.929688-12.925781-12.929688h35.855469v40h-35.855469l12.925781-12.929688c3.90625-3.90625 3.90625-10.234374 0-14.140624zm22.929688-72.929688v40c-9.074219 0-69.390625 0-80 0 0-5.523438-4.476562-10-10-10h-40c-5.523438 0-10 4.476562-10 10h-20v-40zm-160 182v-62h20c0 5.523438 4.476562 10 10 10h40c5.523438 0 10-4.476562 10-10h80v192.453125c-25.617188 2.292969-49.390625 13.363281-67.777344 31.765625-18.40625 18.390625-29.476562 42.167969-31.769531 67.78125h-180.453125v-83.011719c69.160156-14.074219 120-75.105469 120-146.988281zm-170 150h20c3.335938 0 6.675781-.121094 10-.339844v80.339844h-100v-10c0-38.597656 31.402344-70 70-70zm330 130c0 5.515625-4.484375 10-10 10h-83.820312l-7.234376-14.472656c-1.695312-3.386719-5.15625-5.527344-8.945312-5.527344h-60c-3.789062 0-7.25 2.140625-8.945312 5.527344l-7.234376 14.472656h-203.820312c-5.515625 0-10-4.484375-10-10v-30h400zm0 0"/><path d="m160.574219 375.0625c1.839843 5.191406 7.546875 7.933594 12.769531 6.082031 32.5625-11.550781 61.433594-31.847656 83.492188-58.695312 3.507812-4.269531 2.890624-10.570313-1.378907-14.078125-4.265625-3.503906-10.566406-2.886719-14.074219 1.378906-19.75 24.039062-45.589843 42.210938-74.726562 52.542969-5.203125 1.847656-7.925781 7.566406-6.082031 12.769531zm0 0"/></svg>