<svg height="942pt" viewBox="-4 0 942 942.50058" width="942pt" xmlns="http://www.w3.org/2000/svg"><path d="m932.253906 919.570312-442.324218-823.632812 52.453124-78.664062-25.898437-17.273438-47.75 71.703125c-1.003906-.09375-2.011719-.09375-3.015625 0l-47.851562-71.703125-25.898438 17.273438 52.453125 78.664062-442.324219 823.632812c-2.582031 4.828126-2.453125 10.65625.363282 15.355469 2.808593 4.691407 7.878906 7.574219 13.351562 7.574219h902.726562c5.480469 0 10.554688-2.882812 13.363282-7.574219 2.800781-4.699219 2.945312-10.527343.351562-15.355469zm-465.078125-800.210937.9375 1.746094c-.328125 1.121093-.625 2.265625-.9375 3.410156-.308593-1.144531-.609375-2.289063-.933593-3.410156zm-149.507812 465.164063c-76.75 132.820312-172.515625 241.246093-259.320313 296.105468l384.9375-716.769531c11.738282 103.019531-35.527344 264.5-125.617187 420.664063zm26.960937 15.558593c57.914063-97.019531 99.320313-202.988281 122.546875-313.566406 23.226563 110.578125 64.640625 216.546875 122.558594 313.566406 80.9375 140.203125 183.65625 254.769531 276.808594 311.289063h-798.726563c93.148438-56.519532 195.808594-171.085938 276.8125-311.289063zm272.054688-15.558593c-90.085938-156.164063-137.347656-317.644532-125.609375-420.664063l384.929687 716.769531c-86.800781-54.859375-182.570312-163.285156-259.320312-296.105468zm0 0"/></svg>