<?xml version="1.0" encoding="iso-8859-1"?>
<!-- Generator: Adobe Illustrator 19.0.0, SVG Export Plug-In . SVG Version: 6.00 Build 0)  -->
<svg version="1.1" id="Layer_1" xmlns="http://www.w3.org/2000/svg" xmlns:xlink="http://www.w3.org/1999/xlink" x="0px" y="0px"
	 viewBox="0 0 512 512" style="enable-background:new 0 0 512 512;" xml:space="preserve">
<g>
	<g>
		<path d="M347.576,0H164.472c-43.424,0-84.464,39.584-84.464,81.44V192c0,8.832,7.168,16,16,16c8.832,0,16-7.168,16-16V81.44
			c0-24.032,26.976-49.44,52.464-49.44h183.104c25.472,0,52.432,25.408,52.432,49.44V192c0,8.832,7.168,16,16,16
			c8.832,0,16-7.168,16-16V81.44C432.008,39.584,390.984,0,347.576,0z"/>
	</g>
</g>
<g>
	<g>
		<path d="M73.512,182.528c-34.736,0-62.992,28.256-62.992,62.976c0,34.736,28.272,63.008,62.992,63.008
			c34.736,0,62.992-28.272,62.992-63.008C136.504,210.784,108.248,182.528,73.512,182.528z M73.512,276.512
			c-17.088,0-30.992-13.92-30.992-31.008c0-17.072,13.904-30.976,30.992-30.976c17.088,0,30.992,13.904,30.992,30.976
			C104.504,262.608,90.6,276.512,73.512,276.512z"/>
	</g>
</g>
<g>
	<g>
		<path d="M448.008,288c-8.832,0-16,7.168-16,16l0.416,138.88c-1.312,1.744-8.832,5.12-17.968,5.12H89.496
			c-2.224,0-9.488-0.272-9.488-3.664V304c0-8.832-7.168-16-16-16c-8.832,0-16,7.168-16,16v140.336
			C48.008,465.664,64.68,480,89.496,480h324.96c24.016,0,49.552-12.496,49.552-35.664V304C464.008,295.168,456.84,288,448.008,288z"
			/>
	</g>
</g>
<g>
	<g>
		<path d="M128.008,272c-8.832,0-16,7.168-16,16v176c0,8.832,7.168,16,16,16c8.832,0,16-7.168,16-16V288
			C144.008,279.168,136.84,272,128.008,272z"/>
	</g>
</g>
<g>
	<g>
		<path d="M438.488,182.528c-34.736,0-62.992,28.256-62.992,62.976c0,34.736,28.272,63.008,62.992,63.008
			c34.736,0,62.992-28.272,62.992-63.008C501.48,210.784,473.224,182.528,438.488,182.528z M438.488,276.512
			c-17.088,0-30.992-13.92-30.992-31.008c0-17.072,13.904-30.976,30.992-30.976c17.088,0,30.992,13.904,30.992,30.976
			C469.48,262.608,455.576,276.512,438.488,276.512z"/>
	</g>
</g>
<g>
	<g>
		<path d="M384.008,272c-8.832,0-16,7.168-16,16v176c0,8.832,7.168,16,16,16c8.832,0,16-7.168,16-16V288
			C400.008,279.168,392.84,272,384.008,272z"/>
	</g>
</g>
<g>
	<g>
		<path d="M384.008,272h-256c-8.832,0-16,7.168-16,16c0,8.832,7.168,16,16,16h256c8.832,0,16-7.168,16-16
			C400.008,279.168,392.84,272,384.008,272z"/>
	</g>
</g>
<g>
	<g>
		<path d="M384.008,320h-256c-8.832,0-16,7.168-16,16c0,8.832,7.168,16,16,16h256c8.832,0,16-7.168,16-16
			C400.008,327.168,392.84,320,384.008,320z"/>
	</g>
</g>
<g>
	<g>
		<path d="M299.96,169.424l-10.88-8.752c-6.864-5.552-16.96-4.464-22.496,2.416c-5.552,6.88-4.464,16.96,2.416,22.496l10.88,8.752
			c2.96,2.384,6.512,3.536,10.032,3.536c4.672,0,9.296-2.048,12.464-5.952C307.928,185.04,306.84,174.96,299.96,169.424z"/>
	</g>
</g>
<g>
	<g>
		<path d="M247.8,163.088c-5.536-6.88-15.6-7.968-22.496-2.448l-10.896,8.752c-6.896,5.536-7.984,15.616-2.448,22.496
			c3.168,3.952,7.808,5.984,12.48,5.984c3.536,0,7.072-1.168,10.016-3.536l10.896-8.752
			C252.248,180.048,253.336,169.968,247.8,163.088z"/>
	</g>
</g>
<g>
	<g>
		<path d="M302.376,120.56c-5.552-6.88-15.616-7.968-22.496-2.416L269,126.896c-6.864,5.536-7.968,15.616-2.416,22.496
			c3.152,3.936,7.792,5.968,12.464,5.968c3.52,0,7.072-1.152,10.032-3.552l10.88-8.752
			C306.824,137.52,307.928,127.44,302.376,120.56z"/>
	</g>
</g>
<g>
	<g>
		<path d="M245.352,126.88l-10.896-8.752c-6.864-5.52-16.944-4.448-22.496,2.448c-5.536,6.88-4.448,16.96,2.448,22.496l10.896,8.752
			c2.96,2.384,6.496,3.536,10.016,3.536c4.688,0,9.312-2.048,12.48-5.984C253.336,142.496,252.248,132.416,245.352,126.88z"/>
	</g>
</g>
<g>
	<g>
		<path d="M128.008,448c-8.832,0-16,7.168-16,16v32c0,8.832,7.168,16,16,16c8.832,0,16-7.168,16-16v-32
			C144.008,455.168,136.84,448,128.008,448z"/>
	</g>
</g>
<g>
	<g>
		<path d="M384.008,448c-8.832,0-16,7.168-16,16v32c0,8.832,7.168,16,16,16c8.832,0,16-7.168,16-16v-32
			C400.008,455.168,392.84,448,384.008,448z"/>
	</g>
</g>
<g>
</g>
<g>
</g>
<g>
</g>
<g>
</g>
<g>
</g>
<g>
</g>
<g>
</g>
<g>
</g>
<g>
</g>
<g>
</g>
<g>
</g>
<g>
</g>
<g>
</g>
<g>
</g>
<g>
</g>
</svg>
